<?xml version="1.0" standalone="no"?>
<!DOCTYPE svg PUBLIC "-//W3C//DTD SVG 20010904//EN"
 "http://www.w3.org/TR/2001/REC-SVG-20010904/DTD/svg10.dtd">
<svg version="1.0" xmlns="http://www.w3.org/2000/svg"
 width="225.000000pt" height="225.000000pt" viewBox="0 0 225.000000 225.000000"
 preserveAspectRatio="xMidYMid meet">
<metadata>
Created by potrace 1.11, written by Peter Selinger 2001-2013
</metadata>
<g transform="translate(0.000000,225.000000) scale(0.100000,-0.100000)"
fill="#000000" stroke="none">
<path d="M628 1883 c-25 -6 -31 -33 -12 -54 21 -24 30 -24 37 -1 2 9 8 24 11
33 8 18 -9 28 -36 22z"/>
<path d="M1972 1881 c-9 -5 -9 -14 0 -39 7 -18 16 -32 20 -32 11 0 38 42 32
52 -10 15 -40 27 -52 19z"/>
<path d="M984 1660 c-31 -12 -54 -49 -54 -88 0 -79 102 -113 154 -51 14 17 26
39 26 50 0 32 -26 74 -55 87 -30 14 -42 14 -71 2z m83 -54 c-4 -9 -16 -16 -27
-16 -29 0 -38 30 -15 47 16 11 21 11 33 -1 8 -8 12 -22 9 -30z"/>
<path d="M1563 1650 c-77 -46 -43 -160 47 -160 62 0 101 53 86 115 -7 26 -58
65 -86 65 -8 0 -30 -9 -47 -20z m50 -24 c8 -20 -8 -38 -29 -34 -22 4 -31 37
-13 48 15 10 36 3 42 -14z"/>
<path d="M1280 1403 c-49 -19 -67 -73 -31 -93 25 -13 92 -13 125 0 34 12 35
53 3 75 -27 17 -76 27 -97 18z"/>
<path d="M671 1377 c2 -1 13 -9 24 -17 19 -14 19 -14 6 3 -7 9 -18 17 -24 17
-6 0 -8 -1 -6 -3z"/>
<path d="M226 1292 c-2 -4 11 -6 30 -4 19 2 34 6 34 8 0 8 -59 4 -64 -4z"/>
<path d="M873 1293 c9 -2 23 -2 30 0 6 3 -1 5 -18 5 -16 0 -22 -2 -12 -5z"/>
<path d="M1078 1293 c12 -2 30 -2 40 0 9 3 -1 5 -23 4 -22 0 -30 -2 -17 -4z"/>
<path d="M1134 1070 c0 -118 2 -167 3 -107 2 59 2 155 0 215 -1 59 -3 10 -3
-108z"/>
<path d="M221 824 c0 -11 3 -14 6 -6 3 7 2 16 -1 19 -3 4 -6 -2 -5 -13z"/>
<path d="M1122 780 c0 -14 2 -19 5 -12 2 6 2 18 0 25 -3 6 -5 1 -5 -13z"/>
<path d="M1111 724 c0 -11 3 -14 6 -6 3 7 2 16 -1 19 -3 4 -6 -2 -5 -13z"/>
<path d="M959 393 c-13 -16 -12 -17 4 -4 16 13 21 21 13 21 -2 0 -10 -8 -17
-17z"/>
<path d="M914 338 l-19 -23 23 19 c12 11 22 21 22 23 0 8 -8 2 -26 -19z"/>
<path d="M693 223 c9 -2 23 -2 30 0 6 3 -1 5 -18 5 -16 0 -22 -2 -12 -5z"/>
</g>
</svg>
